  http://www.imdb.com/title/tt1477076/

Release Date: 29 October 2010 (USA)
Genre: Crime | Horror | Mystery | Thriller
Plot: As a deadly battle rages over Jigsaw's brutal legacy, a group of Jigsaw survivors gathers to seek the support of self-help guru and fellow survivor Bobby Dagen, a man whose own dark secrets unleash a new wave of terror.
Cast:
Tobin Bell ... Jigsaw / John Kramer
Costas Mandylor ... Det. Mark Hoffman
Betsy Russell ... Jill Tuck
Cary Elwes ... Dr. Lawrence Gordon
Sean Patrick Flanery ... Bobby Dagen
Chad Donella ... Det. Matt Gibson
Gina Holden ... Joyce Dagen
Laurence Anthony ... Det. Rogers
Dean Armstrong ... Cale
Naomi Snieckus ... Nina
Rebecca Marshall ... Suzanne
James Van Patten ... Dr. Heffner
Sebastian Pigott ... Brad
Jon Cor ... Ryan
Anne Lee Greene ... Dina (as Anne Greene)


File Name
Saw VII 2010 720p BRRip H264.mp4
File Size
Format : MPEG-4
Format profile : Base Media
Codec ID : isom
File size : 2.14 GiB
Duration : 1h 30mn
Overall bit rate : 3 400 Kbps
Video
ID : 1
Format : AVC
Format/Info : Advanced Video Codec
Format profile : High@L4.1
Format settings, CABAC : Yes
Format settings, ReFrames : 3 frames
Codec ID : avc1
Codec ID/Info : Advanced Video Coding
Duration : 1h 30mn
Bit rate mode : Variable
Bit rate : 2 949 Kbps
Maximum bit rate : 10.9 Mbps
Width : 1 280 pixels
Height : 720 pixels
Display aspect ratio : 16:9
Frame rate mode : Constant
Frame rate : 23.976 fps
Resolution : 24 bits
Colorimetry : 4:2:0
Scan type : Progressive
Bits/(Pixel*Frame) : 0.133
Stream size : 1.85 GiB (87%)
Audio #1
ID : 2
Format : AAC
Format/Info : Advanced Audio Codec
Format version : Version 4
Format profile : LC
Format settings, SBR : No
Codec ID : 40
Duration : 1h 30mn
Bit rate mode : Variable
Bit rate : 128 Kbps
Maximum bit rate : 133 Kbps
Channel(s) : 2 channels
Channel positions : L R
Sampling rate : 48.0 KHz
Resolution : 16 bits
Stream size : 82.4 MiB (4%)
Audio #2
ID : 3
Format : AAC
Format/Info : Advanced Audio Codec
Format version : Version 4
Format profile : LC
Format settings, SBR : No
Codec ID : 40
Duration : 1h 30mn
Bit rate mode : Variable
Bit rate : 320 Kbps
Maximum bit rate : 336 Kbps
Channel(s) : 6 channels
Channel positions : Front: L C R, Rear: L R, LFE
Sampling rate : 48.0 KHz
Resolution : 16 bits
Stream size : 206 MiB (9%)
English SRT : ----
Language : English
 
http://leetleech.org/images/58693392805928504614.png 
http://leetleech.org/images/32657417741332055935.png 
http://leetleech.org/images/35397765798704841271.png